<svg xmlns="http://www.w3.org/2000/svg" width="174" height="56" viewBox="0 0 174 56">
			<g class="logo-color">
				<path d="M56.4 10.3C54.1 10.3 45.5 11.3 34.9 26.8 31.7 27.3 28.8 27.4 26.9 26.2 26.1 25.7 26.1 27.1 26.4 28.1 27.4 30.8 29.1 32.1 31.2 32.5 26.1 40.9 24.5 46.3 18 50.8 16.1 52.1 13.4 52.2 11.2 51.4 8.7 50.5 6.9 48 6.6 44.5 6.3 41.5 7.6 39.3 9.6 37.5 10.1 37 10.1 36.5 9.9 36.1 9.6 35.7 9.2 35.6 8.9 35.6 7.8 35.7 4.8 36.2 2.9 38.4 1.8 39.6 0.8 41.4 0.5 42.8 0.2 44.3-0.8 52.7 8.2 55.4 8.7 55.6 16.4 57.8 24.1 51.5 31.9 45 36.2 38.2 40.5 31.5 44.5 30.5 48.6 29.5 51.8 30.8 52.9 31.2 53.3 30.9 52.6 28.8 51.3 25.8 48.2 25.1 44.7 25.3 45.2 24.6 45.7 23.8 46.3 23.1 47.7 21 51 16.8 56.9 12.3 57.6 11.8 57.9 11.3 57.7 10.8 57.6 10.4 57 10.3 56.4 10.3M80.1 0.7C79.9 0.3 79.4 0.2 78.5 0.5 71.2 2.5 64.5 3 56.4 2.3 51.3 1.8 37 0.5 28 2.7 20.2 4.6 18.2 10.3 18 10.6 15.6 16.5 20.3 21.2 23.7 22.2 26.2 23 29.4 22.1 30.8 20.3 31.1 20 31 19.5 30.9 19.2 30.7 18.9 30.3 18.9 29.9 19 29.6 19 29.2 19.1 28.9 19.2 24.7 19.6 21 15.7 22.1 11 22.4 9.9 23.3 7.9 25.8 6.8 33.3 3.6 46.8 8.4 57.4 9.2 72.9 9.7 78.5 3.9 79.9 2.1 80.3 1.5 80.4 1 80.1 0.7"></path>
				<path d="M73.3 29.1C72.6 25.3 69.7 23.6 66.9 23.6 64.8 23.6 61.3 24.7 60.2 29.1L73.3 29.1zM60.4 33.7C60.6 35.2 62.9 38.6 66.9 38.6 69.4 38.6 71.3 37.5 72.3 35.5L78.3 35.5C76.9 39.8 72.4 43.8 66.9 43.8 59.9 43.8 54.4 38.2 54.4 31.2 54.4 24.5 59.6 18.4 66.9 18.4 74.3 18.4 79.1 24.9 79.1 30.8 79.1 32 78.9 32.9 78.7 33.7L60.4 33.7zM80.5 19.3L85.7 19.3 85.7 21.4 85.8 21.4C86.8 19.9 87.9 18.5 90.8 18.5L91.3 18.5 91.3 24C86.1 24.2 86.1 28.3 86.1 29.7L86.1 43 80.5 43 80.5 19.3zM93.2 19.3L98.4 19.3 98.4 21.4 98.5 21.4C99.6 19.9 100.6 18.5 103.6 18.5L104.1 18.5 104.1 24C98.9 24.2 98.9 28.3 98.9 29.7L98.9 43 93.2 43 93.2 19.3zM116.3 23.7C111.7 23.7 109.3 27.7 109.3 31.3 109.3 35.3 112.3 38.6 116.3 38.6 120.2 38.6 123.2 35.5 123.2 31.1 123.2 26.2 119.7 23.7 116.3 23.7zM128.6 43L123.4 43 123.4 40.1C121.6 42.2 118.1 43.8 115.1 43.8 109 43.8 103.6 38.9 103.6 31 103.6 23.8 108.9 18.5 115.5 18.5 120.3 18.5 123.1 22 123.3 22.3L123.4 22.3 123.4 19.3 128.6 19.3 128.6 43zM131.5 19.3L136.7 19.3 136.7 21.4 136.8 21.4C137.9 19.9 138.9 18.5 141.9 18.5L142.3 18.5 142.3 24C137.2 24.2 137.2 28.3 137.2 29.7L137.2 43 131.5 43 131.5 19.3zM155.5 23.7C150.8 23.7 148.4 27.7 148.4 31.3 148.4 35.3 151.4 38.6 155.5 38.6 159.4 38.6 162.3 35.5 162.3 31.1 162.3 26.2 158.8 23.7 155.5 23.7zM167.7 43L162.5 43 162.5 40.1C160.7 42.2 157.2 43.8 154.3 43.8 148.2 43.8 142.8 38.9 142.8 31 142.8 23.8 148 18.5 154.6 18.5 159.4 18.5 162.3 22 162.4 22.3L162.5 22.3 162.5 19.3 167.7 19.3 167.7 43z"></path>
				<path d="M171.5 41.6C171.9 41.6 172.1 41.6 172.1 41.2 172.1 40.9 171.8 40.9 171.6 40.9L171.1 40.9 171.1 41.6 171.5 41.6ZM171.5 42L171.1 42 171.1 43 170.6 43 170.6 40.5 171.6 40.5C172.3 40.5 172.6 40.7 172.6 41.2 172.6 41.7 172.3 41.9 171.9 41.9L172.6 43 172.1 43 171.5 42ZM173.3 41.8C173.3 40.8 172.5 40 171.6 40 170.7 40 169.9 40.8 169.9 41.8 169.9 42.7 170.7 43.5 171.6 43.5 172.5 43.5 173.3 42.7 173.3 41.8ZM171.6 39.6C172.8 39.6 173.8 40.5 173.8 41.8 173.8 43 172.8 44 171.6 44 170.4 44 169.4 43 169.4 41.8 169.4 40.5 170.4 39.6 171.6 39.6Z"></path>
			</g>
</svg>